<svg width="38" height="38" viewBox="0 0 38 38" fill="none" xmlns="http://www.w3.org/2000/svg">
<path d="M19 37.3333C8.8748 37.3333 0.666687 29.1252 0.666687 19C0.666687 8.87477 8.8748 0.666656 19 0.666656C29.1252 0.666656 37.3334 8.87477 37.3334 19C37.3222 29.1206 29.1206 37.3222 19 37.3333ZM19 4.33332C10.8998 4.33332 4.33335 10.8998 4.33335 19C4.33335 27.1002 10.8998 33.6667 19 33.6667C27.1002 33.6667 33.6667 27.1002 33.6667 19C33.6576 10.9036 27.0964 4.34242 19 4.33332ZM28.1667 20.8333H17.1667V9.83332H20.8334V17.1667H28.1667V20.8333Z" fill="#4C4A4C"/>
</svg>
