<svg width="32" height="37" viewBox="0 0 32 37" fill="none" xmlns="http://www.w3.org/2000/svg">
<path d="M30 37H2C0.89543 37 0 36.1087 0 35.0093V15.8128C0.0309823 15.325 0.239278 14.865 0.586 14.5189L14.586 0.58385C14.9611 0.21004 15.4702 0 16.001 0C16.5318 0 17.0409 0.21004 17.416 0.58385L31.416 14.5189C31.7915 14.8917 32.0017 15.3984 32 15.9263V35.0093C32 36.1087 31.1046 37 30 37ZM16 4.80616L4 16.7504V33.0186H28V16.7504L16 4.80616ZM13 30.15L7.588 24.775L10.4 21.9522L13 24.5242L21.6 15.98L24.424 18.7989L13 30.148V30.15Z" fill="#4C4A4C"/>
</svg>
