<svg width="36" height="36" viewBox="0 0 36 36" fill="none" xmlns="http://www.w3.org/2000/svg">
<path d="M18 35.5C8.33502 35.5 0.5 27.665 0.5 18C0.5 8.33502 8.33502 0.5 18 0.5C27.665 0.5 35.5 8.33502 35.5 18C35.4894 27.6606 27.6606 35.4894 18 35.5ZM4 18.301C4.0828 26.0032 10.3719 32.1917 18.0744 32.1505C25.777 32.1089 31.9992 25.8531 31.9992 18.1505C31.9992 10.4479 25.777 4.19211 18.0744 4.1505C10.3719 4.1093 4.0828 10.2978 4 18V18.301ZM19.75 26.75H16.25V19.75H9.25V16.25H16.25V9.25H19.75V16.25H26.75V19.75H19.75V26.75Z" fill="black"/>
</svg>
